<svg xmlns="http://www.w3.org/2000/svg" width="1600" height="1200" viewBox="0 0 1600 1200">
  <defs>
    <linearGradient id="bg" x1="0" y1="0" x2="0" y2="1"><stop offset="0" stop-color="#f3efe6"/><stop offset="1" stop-color="#e6ded0"/></linearGradient>
    <linearGradient id="pages" x1="0" y1="0" x2="1" y2="0"><stop offset="0" stop-color="#d9cfbe"/><stop offset=".2" stop-color="#f7f1e7"/><stop offset="1" stop-color="#e4d9c7"/></linearGradient>
    <linearGradient id="paper" x1="0" y1="0" x2="1" y2="1"><stop offset="0" stop-color="#f4eddf"/><stop offset=".5" stop-color="#eee3d0"/><stop offset="1" stop-color="#e8dbc6"/></linearGradient>
    <filter id="shadow" x="-40%" y="-40%" width="180%" height="180%"><feDropShadow dx="35" dy="48" stdDeviation="32" flood-color="#352b20" flood-opacity=".28"/></filter>
  </defs>
  <rect width="1600" height="1200" fill="url(#bg)"/>
  <ellipse cx="840" cy="1040" rx="530" ry="90" fill="#4e4438" opacity=".12"/>
  <g transform="translate(395 110)" filter="url(#shadow)">
    <polygon points="145,112 760,45 892,123 892,891 760,952 145,907" fill="url(#pages)" stroke="#b7aa97" stroke-width="3"/>
    <g stroke="#c9bdab" stroke-width="1" opacity=".55">
      <line x1="774" y1="147" x2="884" y2="188"/><line x1="774" y1="166" x2="884" y2="207"/>
      <line x1="774" y1="185" x2="884" y2="226"/><line x1="774" y1="204" x2="884" y2="245"/>
      <line x1="774" y1="223" x2="884" y2="264"/><line x1="774" y1="242" x2="884" y2="283"/>
      <line x1="774" y1="261" x2="884" y2="302"/><line x1="774" y1="280" x2="884" y2="321"/>
      <line x1="774" y1="299" x2="884" y2="340"/>
    </g>
    <g transform="matrix(.615,-.067,0,.56,145,112)">
      <rect x="0" y="0" width="1000" height="1500" fill="url(#paper)" stroke="#5d6f58" stroke-width="7"/>
      <rect x="25" y="25" width="950" height="1450" fill="none" stroke="#b4a785" stroke-width="3"/>
      <text x="500" y="170" text-anchor="middle" font-family="Georgia, serif" font-size="34" letter-spacing="5" fill="#7e6a4f">WRITE NOW PUBLISHING HOUSE</text>
      <text x="500" y="335" text-anchor="middle" font-family="Georgia, serif" font-size="46" font-style="italic" fill="#6c5d4a">a recovered storybook</text>
      <text x="500" y="485" text-anchor="middle" font-family="Georgia, serif" font-size="90" font-weight="700" fill="#314536">THE WISH FAIRY</text>
      <text x="500" y="570" text-anchor="middle" font-family="Georgia, serif" font-size="72" fill="#314536">AND DEWY DEAR</text>
      <ellipse cx="500" cy="900" rx="245" ry="220" fill="#e5dbc7" stroke="#b6a989" stroke-width="5"/>
      <path d="M500 720 C592 826 585 919 500 997 C415 919 408 826 500 720Z" fill="#9db9b0" stroke="#45655f" stroke-width="5"/>
      <path d="M500 765 C550 828 549 890 500 940 C454 891 454 831 500 765Z" fill="#c9ded6" opacity=".72"/>
      <g stroke="#556d57" stroke-width="4" fill="#e9e1cb">
        <circle cx="500" cy="855" r="15" fill="#d6bc94" stroke="none"/>
        <path d="M493 873 C428 835 388 860 395 893 C438 906 468 894 493 873Z"/>
        <path d="M507 873 C572 835 612 860 605 893 C562 906 532 894 507 873Z"/>
        <path d="M495 905 C438 901 421 932 438 955 C471 950 490 929 495 905Z"/>
        <path d="M505 905 C562 901 579 932 562 955 C529 950 510 929 505 905Z"/>
      </g>
      <text x="500" y="1240" text-anchor="middle" font-family="Georgia, serif" font-size="34" letter-spacing="2" fill="#7e6a4f">ALICE ROSS COLVER</text>
      <text x="500" y="1330" text-anchor="middle" font-family="Georgia, serif" font-size="24" font-style="italic" fill="#6b604f">First published in 1922</text>
    </g>
    <polyline points="145,112 760,45 764,50" fill="none" stroke="#f5ead7" stroke-width="8" opacity=".9"/>
    <polyline points="145,907 760,952 764,946" fill="none" stroke="#d8c7aa" stroke-width="8" opacity=".8"/>
  </g>
  <text x="800" y="1140" text-anchor="middle" font-family="Georgia, serif" font-size="24" fill="#776c5c">PROPOSAL MOCKUP — PHYSICAL SPECIFICATION NOT YET APPROVED</text>
</svg>
